<?xml version="1.0" encoding="utf-8"?>
<!-- Generator: Adobe Illustrator 24.3.0, SVG Export Plug-In . SVG Version: 6.00 Build 0)  -->
<svg version="1.1" id="Layer_1" xmlns="http://www.w3.org/2000/svg" xmlns:xlink="http://www.w3.org/1999/xlink" x="0px" y="0px"
	 viewBox="0 0 141.7 141.7" style="enable-background:new 0 0 141.7 141.7;" xml:space="preserve">
<style type="text/css">
	.st0{fill:#FFFFFF;}
</style>
<g>
	<g>
		<path class="st0" d="M17,36.7c2.1-1.3,3.8-2.4,5.8-3.8c3.9,4.6,8.7,7.6,15.3,7.1c-6.3-8-7.1-16.4-3-25.7c2.1,0.9,4.1,1.7,6.2,2.7
			c-0.2,0.8-0.5,1.6-0.6,2.2c-0.3,2.7-0.9,5.2-0.6,7.9c0.6,6.2,3.9,10.4,9.9,12.2c2.5,0.6,5.1,1.3,8,1.9c-0.8-4.6-1.1-8.8-3.2-12.5
			c-1.7-3.3-4.6-5.1-8-5.7c-0.9-0.2-1.9-0.3-2.7-0.5c-0.2-0.3-0.3-0.5-0.3-0.6c1.3-7.1,2.1-7.1,8.4-4.6c2.1,0.8,3.8,2.2,5.8,3.5
			c4.1-10.9,11-18.5,23.2-20.4c0,2.5,0,4.6,0,7.1C71,9.7,65.8,17,64.2,27.1c-1.3,8,0.8,15.3,6.3,21.5c7.9-6.6,9-19.6,2.7-32.4
			c1.7-1.3,3.5-2.5,5.4-3.8c2.5,2.5,3.3,5.5,4.4,8.4c2.7-1.4,5.1-3,7.9-3.9c4.3-1.6,5.2-0.9,6.2,3.6c0.2,0.6,0.2,1.4,0.2,2.2
			C96.8,22.8,96.3,23,96,23c-6.5,0.6-10.1,4.4-11.4,10.6c-0.5,2.4-0.9,4.9-1.4,7.3c12.5,0.5,21.9-7.7,16.7-23.4
			c1.9-0.8,3.8-1.7,5.7-2.7c4.7,5.7,3.9,14.8-2.1,25.6c6.3,0.6,11-2.2,15-7.1c1.9,1.3,3.8,2.4,5.8,3.6c-5.8,8-13.3,11.4-22.9,10.4
			c-3.5-0.3-7.1-0.8-10.4-0.6c-8.8,0.5-15.2,4.9-19.3,12.8s-5.2,15.9-1.3,24.6c1.6-2.4,2.1-4.7,2.4-7.3c0.3-2.1,0.3-4.4,0-6.5
			c-0.6-4.4,1.4-7.9,3.6-12c2.1,3.8,3,7.6,3.5,11.2c0.9,6.8-0.6,13.3-3.6,19.3c-2.8,5.5-6.5,10.6-10.6,15.2
			c-0.9,1.1-2.1,1.7-3.6,1.6c-2.4-0.2-4.7,0-7.7,0c1.1-1.1,1.6-1.7,2.2-2.4c3-3.3,5.8-6.5,8.7-9.8c0.9-1.1,0.9-2.1,0.3-3.3
			c-6.3-11.2-5.8-22.6-0.2-33.8c0.8-1.4,0.5-2.4-0.6-3.5c-5.2-5.1-11.5-6.8-18.5-6.3c-3.6,0.2-7.3,0.8-10.7,0.8
			C27.8,47,21.8,43.2,17,36.7z"/>
		<path class="st0" d="M18.3,42.9c1.9,1.4,3.8,2.7,5.4,4.1c0.5,0.5,0.6,1.6,0.6,2.2c0.2,4.3,1.3,8,4.1,11.2
			c4.1,4.3,8.7,5.1,15.3,2.5c-2.8-3.6-4.9-7.6-4.7-12.6c2.2-0.2,4.4-0.5,6.2-0.6c1.7,3,2.8,6.2,4.9,8.4c2.2,2.2,5.4,3.3,8.4,5.1
			c-0.3,1.7-0.8,3.9-1.1,6.2c-12.8-0.5-16.6,1.1-23.5,10.1c-0.9-0.2-2.1-0.3-3.2-0.6c-1.1-0.3-2.2-0.6-3.8-1.1
			c1.4-2.4,2.8-4.4,4.3-6.8c-6.2-2.7-10.6-6.8-12.9-13.3C17,53.1,16.9,47.6,18.3,42.9z"/>
		<path class="st0" d="M110.2,71c1.4,2.2,2.8,4.3,4.4,6.6c-1.3,0.5-2.2,0.8-3.3,1.1c-3.5,0.9-3.3,0.9-5.5-1.6
			c-5.2-6-11.7-8.8-19.7-7.7c-0.3,0-0.8,0.2-1.1,0.2c-0.2,0-0.3-0.2-0.8-0.2c-0.3-2.1-0.8-4.1-1.3-6.5c6.8-1.7,12.3-4.9,12.8-13.1
			c2.4,0.2,4.4,0.3,6.8,0.5c0.2,4.9-1.7,8.8-4.6,12.5c4.7,3,11,2.2,15-1.9c3-3.2,4.4-6.8,4.3-11c0-1.6,0.5-2.7,1.9-3.5
			c1.4-0.9,2.7-2.1,3.9-3.2C128,51.4,121.8,65,110.2,71z"/>
		<path class="st0" d="M70.7,41.1c-4.4-3.9-4.7-14.4,0-19.7C75.4,26.3,75.6,36.5,70.7,41.1z"/>
		<path class="st0" d="M100.7,80.1C96,82,91.5,82,87.1,79.3c-1.3-0.8-2.2-2.1-1.9-3.8c0.3-1.7,1.7-2.4,3.3-2.7
			C92.6,72.4,99,75.8,100.7,80.1z"/>
		<path class="st0" d="M41,79.6c2.5-3.9,6.2-6.2,10.9-6.8c0.5,0,0.9,0,1.4,0c1.6,0.3,3.3,0.8,3.3,2.7c0,1.1-0.8,3-1.7,3.5
			c-1.9,1.1-4.3,2.1-6.5,2.2c-2.4,0.2-4.7-0.5-7.3-0.8C41,80.3,41,80,41,79.6z"/>
		<path class="st0" d="M61.2,2c0.5,4.6-0.9,8-3.9,10.9c-1.7,1.6-3.6,1.9-4.9,0.8s-1.6-3-0.5-4.9C53.7,5,56.8,2.9,61.2,2z"/>
		<path class="st0" d="M73.2,101.4c1.6-2.2,2.8-4.1,4.3-6c3.2,3.3,6,6.5,9.5,10.1c-3.5,0-6.6,0.5-9.5-0.2
			C75.9,104.9,74.8,102.8,73.2,101.4z"/>
		<path class="st0" d="M89,2.9c1.7,4.3,1.6,8-0.8,11.5C87.6,15.4,86,16,84.9,16c-1.6-0.2-2.2-1.7-2.1-3.3C83.2,8.5,85.2,5.3,89,2.9z
			"/>
		<path class="st0" d="M28.9,50c4.4,1.1,7.1,3.5,8.7,7.1c0.6,1.4,0.8,3.2-0.6,4.1c-1.6,1.1-3.2,0.5-4.3-0.8
			C29.8,57.7,28.6,54.2,28.9,50z"/>
		<path class="st0" d="M14.5,65.7c4.1-0.5,8.7,1.9,10.4,5.4c0.6,1.3,0.8,2.5-0.2,3.8c-0.9,1.3-2.5,0.9-3.6,0.3
			C17.4,73.2,15.1,69.9,14.5,65.7z"/>
		<path class="st0" d="M112.9,50c0.5,4.6-0.8,8-3.9,10.7c-1.1,0.9-2.5,1.6-3.9,0.6c-1.4-0.9-1.4-2.5-0.8-3.9
			C105.6,53.6,108.3,51.1,112.9,50z"/>
		<path class="st0" d="M127.2,65.4c-0.8,4.3-2.5,7.3-6,9.3c-1.4,0.8-3.2,1.3-4.4-0.2c-1.3-1.3-0.6-2.8,0.2-4.1
			C119.5,67.2,122.8,65.4,127.2,65.4z"/>
		<path class="st0" d="M25.1,22c5.5,2.4,7.7,7.7,5.8,13.1C25.6,34.2,22.9,28.3,25.1,22z"/>
		<path class="st0" d="M111,35.3c-2.1-5.5,0.2-10.7,5.5-13.3C119.3,27.1,116.8,33.1,111,35.3z"/>
		<path class="st0" d="M49.7,50.6c4.1-1.1,9,0.6,10.7,3.8c0.5,0.9,0.6,2.5,0.2,3.5c-0.6,1.4-2.1,1.4-3.5,0.9
			C53.2,57.5,51.1,54.5,49.7,50.6z"/>
		<path class="st0" d="M92,50.3c-1.1,4.1-3.2,6.8-6.6,8.4c-1.4,0.6-3.2,0.8-4.3-0.8c-1.1-1.6-0.3-3,0.8-4.1
			C84.6,50.8,87.9,49.8,92,50.3z"/>
		<path class="st0" d="M54.1,36.7c-6.3-0.6-9.8-4.4-9.5-10.1C49.6,25.5,54,30.1,54.1,36.7z"/>
		<path class="st0" d="M87.8,36.7c0-6.2,3.8-10.6,9.2-10.4C98.2,31.5,94.2,36.1,87.8,36.7z"/>
	</g>
	<g>
		<g>
			<path class="st0" d="M10.3,124v6.9H6.4v-17.6h11.2v3.6h-7.3v3.7h6.2v3.5L10.3,124L10.3,124z"/>
			<path class="st0" d="M18.4,127.4c0-2.2,1.5-3.6,4.4-3.7l3.3-0.3v-0.2c0-1.1-0.7-1.8-2.1-1.8c-1.5,0-2.4,0.6-2.4,1.7h-2.9
				c0-2.7,2.2-4.5,5.6-4.5c3.5,0,5.5,1.9,5.5,5.3v7h-3.3l-0.2-1.6c-0.4,1.1-1.9,1.9-3.7,1.9C20,131.3,18.4,129.8,18.4,127.4z
				 M26.2,126.5v-0.7l-1.9,0.2c-1.6,0.1-2.2,0.5-2.2,1.3c0,0.9,0.5,1.3,1.7,1.3C25.2,128.6,26.2,127.9,26.2,126.5z"/>
			<path class="st0" d="M32.4,131v-11.9h3.5l0.2,1.3c0.6-0.9,1.8-1.6,3.5-1.6c1.8,0,2.9,0.9,3.6,2.1c0.6-1.3,2.1-2.1,3.7-2.1
				c3.1,0,4.6,1.8,4.6,4.5v7.8h-3.7v-6.8c0-1.5-0.8-2.2-1.9-2.2c-1.1,0-2.1,0.5-2.1,2.6v6.4h-3.7v-6.8c0-1.5-0.7-2.2-1.9-2.2
				c-1.1,0-2.1,0.5-2.1,2.6v6.4L32.4,131L32.4,131z"/>
			<path class="st0" d="M53.9,115.1c0-1.1,0.9-2.1,2.1-2.1s2.1,0.9,2.1,2.1c0,1.1-0.9,2.1-2.1,2.1C54.8,117.2,53.9,116.3,53.9,115.1
				z M54.1,119.1h3.7V131h-3.7V119.1z"/>
			<path class="st0" d="M60.6,131v-18h3.7v18L60.6,131L60.6,131z"/>
			<path class="st0" d="M66.1,133.6h2.1c1.3,0,1.8-0.4,2.2-1.7l0.2-0.5l-4.8-12.4h3.9l2.6,7.6l2.9-7.6h3.8l-6.1,14.5
				c-1,2.4-2.3,3.5-4.5,3.5c-0.9,0-1.7-0.1-2.4-0.3L66.1,133.6L66.1,133.6z"/>
			<path class="st0" d="M85.9,113.3h13.9v3.6h-5V131H91v-14.2h-5.1V113.3z"/>
			<path class="st0" d="M108.5,122.5h-1.1c-2.1,0-3.4,0.9-3.4,3.3v5.2h-3.7v-12h3.5l0.2,1.8c0.5-1.1,1.5-1.9,3.1-1.9
				c0.4,0,0.9,0.1,1.4,0.2V122.5z"/>
			<path class="st0" d="M109.3,125c0-3.7,2.5-6.3,6.1-6.3c3.7,0,6.1,2.5,6.1,6.4v0.9l-8.6,0.1c0.2,1.6,1.1,2.3,2.7,2.3
				c1.4,0,2.4-0.5,2.7-1.3h3.4c-0.4,2.7-2.8,4.4-6.1,4.4C111.9,131.3,109.3,128.7,109.3,125z M112.9,123.8h5c0-1.3-0.9-2.1-2.4-2.1
				C114,121.6,113.2,122.3,112.9,123.8z"/>
			<path class="st0" d="M123,125c0-3.7,2.5-6.3,6.1-6.3c3.7,0,6.1,2.5,6.1,6.4v0.9l-8.6,0.1c0.2,1.6,1.1,2.3,2.7,2.3
				c1.4,0,2.4-0.5,2.7-1.3h3.4c-0.4,2.7-2.8,4.4-6.1,4.4C125.6,131.3,123,128.7,123,125z M126.7,123.8h5c0-1.3-0.9-2.1-2.4-2.1
				S127,122.3,126.7,123.8z"/>
		</g>
		<g>
			<path class="st0" d="M78.5,139.7v-5.5h0.7v2.5c0.2-0.5,0.7-0.7,1.3-0.7c1.1,0,1.7,0.9,1.7,1.9c0,1.1-0.7,1.9-1.7,1.9
				c-0.5,0-1.1-0.2-1.3-0.7l-0.1,0.7L78.5,139.7L78.5,139.7z M80.4,139.2c0.7,0,1.1-0.5,1.1-1.3c0-0.7-0.4-1.3-1.1-1.3
				c-0.7,0-1.1,0.5-1.1,1.3C79.2,138.7,79.7,139.2,80.4,139.2z"/>
			<path class="st0" d="M82.5,140.8H83c0.3,0,0.6-0.1,0.8-0.5l0.1-0.4l-1.5-3.9h0.7l1.1,2.9l1.1-2.9h0.7l-1.7,4.5
				c-0.2,0.7-0.6,0.9-1.1,0.9c-0.2,0-0.4-0.1-0.6-0.1L82.5,140.8L82.5,140.8z"/>
			<path class="st0" d="M88.4,139.7v-0.7l2.9-4.1h-2.9v-0.7h3.7v0.7l-2.9,4.1h2.9v0.7H88.4z"/>
			<path class="st0" d="M96.2,136.1v3.7h-0.7l-0.1-0.5c-0.2,0.4-0.7,0.7-1.3,0.7c-0.9,0-1.3-0.5-1.3-1.5v-2.3h0.7v2.1
				c0,0.8,0.3,1.1,0.9,1.1c0.7,0,1-0.4,1-1.2v-1.9L96.2,136.1L96.2,136.1z"/>
			<path class="st0" d="M97.2,139.7v-5.5h0.7v2.5c0.2-0.5,0.7-0.7,1.3-0.7c1.1,0,1.7,0.9,1.7,1.9c0,1.1-0.7,1.9-1.7,1.9
				c-0.5,0-1.1-0.2-1.3-0.7l-0.1,0.7L97.2,139.7L97.2,139.7z M99.1,139.2c0.7,0,1.1-0.5,1.1-1.3c0-0.7-0.4-1.3-1.1-1.3
				c-0.7,0-1.1,0.5-1.1,1.3C97.9,138.7,98.3,139.2,99.1,139.2z"/>
			<path class="st0" d="M101.5,138.7c0-0.7,0.5-1.1,1.3-1.1l1.1-0.1v-0.1c0-0.6-0.4-0.9-0.9-0.9c-0.6,0-0.9,0.3-0.9,0.7h-0.6
				c0-0.7,0.7-1.3,1.6-1.3c0.9,0,1.5,0.5,1.5,1.5v2.3h-0.6l-0.1-0.6c-0.2,0.4-0.7,0.7-1.3,0.7C102,139.8,101.5,139.4,101.5,138.7z
				 M104,138.2V138l-0.9,0.1c-0.6,0.1-0.9,0.3-0.9,0.7s0.3,0.6,0.7,0.6C103.6,139.3,104,138.9,104,138.2z"/>
			<path class="st0" d="M105.6,134.7c0-0.3,0.2-0.5,0.5-0.5s0.5,0.2,0.5,0.5c0,0.2-0.2,0.5-0.5,0.5S105.6,135,105.6,134.7z
				 M105.7,136.1h0.7v3.7h-0.7V136.1z"/>
			<path class="st0" d="M109.5,136.7h-0.3c-0.7,0-1.1,0.4-1.1,1.1v1.9h-0.7v-3.6h0.7l0.1,0.5c0.1-0.4,0.5-0.7,1-0.7
				c0.1,0,0.2,0,0.4,0.1L109.5,136.7L109.5,136.7z"/>
			<path class="st0" d="M111.7,139.7l1.9-5.4h0.9l2,5.4h-0.8l-0.5-1.3H113l-0.5,1.3H111.7z M113.2,137.8h1.8l-0.9-2.3
				c-0.1-0.1-0.1-0.2-0.1-0.3c0,0.1-0.1,0.2-0.1,0.3L113.2,137.8z"/>
			<path class="st0" d="M117.1,139.7v-5.5h0.7v2.4c0.2-0.4,0.7-0.7,1.3-0.7c0.9,0,1.4,0.6,1.4,1.5v2.3h-0.7v-2.1c0-0.7-0.4-1-0.9-1
				c-0.7,0-1.1,0.5-1.1,1.1v2L117.1,139.7L117.1,139.7z"/>
			<path class="st0" d="M121.4,139.7v-3.7h0.7l0.1,0.5c0.2-0.3,0.5-0.6,1.1-0.6c0.5,0,1,0.3,1.1,0.7c0.2-0.5,0.6-0.7,1.1-0.7
				c0.9,0,1.3,0.5,1.3,1.3v2.4h-0.7v-2.2c0-0.5-0.3-0.9-0.9-0.9s-0.9,0.4-0.9,1v2.2h-0.7v-2.2c0-0.5-0.3-0.9-0.8-0.9
				c-0.5,0-0.9,0.4-0.9,0.9v2.2L121.4,139.7L121.4,139.7z"/>
			<path class="st0" d="M127.6,137.9c0-1.1,0.7-1.9,1.8-1.9c1,0,1.7,0.7,1.7,1.8v0.3h-2.9c0.1,0.8,0.5,1.2,1.1,1.2
				c0.5,0,0.9-0.2,1-0.7h0.7c-0.2,0.8-0.8,1.2-1.7,1.2C128.3,139.8,127.6,139.1,127.6,137.9z M128.2,137.6h2.1c0-0.6-0.4-1-1-1
				C128.8,136.5,128.4,136.9,128.2,137.6z"/>
			<path class="st0" d="M131.6,137.9c0-1.1,0.7-1.9,1.7-1.9c0.5,0,1,0.2,1.3,0.7v-2.4h0.7v5.5h-0.7l-0.1-0.7
				c-0.2,0.5-0.7,0.7-1.3,0.7C132.2,139.8,131.6,139,131.6,137.9z M134.6,137.9c0-0.7-0.4-1.3-1.1-1.3c-0.7,0-1.1,0.5-1.1,1.3
				c0,0.7,0.4,1.3,1.1,1.3C134.2,139.2,134.6,138.7,134.6,137.9z"/>
		</g>
	</g>
</g>
</svg>
