<?xml version="1.0" encoding="utf-8"?>
<!-- Generator: Adobe Illustrator 24.3.0, SVG Export Plug-In . SVG Version: 6.00 Build 0)  -->
<svg version="1.1" id="Layer_1" xmlns="http://www.w3.org/2000/svg" xmlns:xlink="http://www.w3.org/1999/xlink" x="0px" y="0px"
	 viewBox="0 0 283.5 283.5" style="enable-background:new 0 0 283.5 283.5;" xml:space="preserve">
<style type="text/css">
	.st0{fill:#A5A5A5;}
</style>
<path class="st0" d="M246.2,230.6c-4.9-6.5-12-11.3-21.6-13.7c-3.1-0.8-6.1-1.9-9.3-2.8c0.3-1.5,0.5-2.6,0.8-3.8
	c2.2-7.4,1-14.3-3-20.9c-1.7-2.8-3.5-5.4-4.9-8.3c-1.8-3.6-3.3-7.4-4.9-11.2c6,5.8,12.5,9.5,20.9,9.1c-0.7-1.1-1.5-1.8-2.5-2.5
	c-6.4-4.6-11.1-10.6-13.2-18.1c-1.7-6.1-2.9-12.5-3.3-18.9c-0.9-13.1-0.7-26.2-1.6-39.2c-0.8-12.2-4.5-23.5-11.6-33.7
	c-11.9-17-28.4-23.5-48.6-19.1c-0.9,0.2-1.9,0.1-2.8-0.1c-13.9-4.5-26-0.8-37,8C93,64.2,87.1,76,83.5,89.1
	c-4.7,17.5-4.5,35.4-3.1,53.2c1.1,14-1.7,26.2-12.7,35.7c-2.4,2.1-4.6,4.6-6.1,7.4c-1.9,3.5-3.3,7.4-4.2,11.2
	c-0.5,2.1,0.6,4.6,1,6.9h1.1c1.5-1.8,2.8-3.8,4.4-5.5c1.6-1.6,3.2-3.2,5-4.5s3.8-2.3,5.7-3.4c-4.7,8.2-4.7,8.2-5.9,23.9
	c-3.7,1.1-7.5,2.4-11.4,3.4c-8.4,2-14.9,6.7-19.8,13.2h-0.2c-16.3,17.9-10,52.9-10,52.9h114.4h114.4
	C256.2,283.5,262.5,248.5,246.2,230.6z M103.2,212.7c9-7.6,13.7-17.5,14.4-30c16.1,12.7,31.9,13.2,48.1,0.1
	c0.8,12.3,5.1,22.4,14.5,29.8C159.8,233.3,126.5,235,103.2,212.7z M101.3,127.3c0.1-1.9,0.2-3.8,0.6-5.7c0.2-1,0.7-2.5,1.3-2.7
	c3.9-0.8,3.7-3.8,3.8-6.6c0-0.6,0.2-1.1,0.4-1.8c0.3,0.2,0.5,0.3,0.6,0.5c1.8,6.7,1.8,6.6,8.8,6c3.1-0.3,6.2-0.3,9.3-0.4
	c2.2-0.1,3.2-1.1,3.1-3.4c-0.1-3.6,0-7.3,0-11.5c1.1,4.1,2.1,7.6,3.1,11.1c0.6,2.4,1.9,3.5,4.6,3.4c4.5-0.2,9-0.1,13.7-0.1v-7.9
	c4.3,9.1,4.4,9.1,10.4,8c0.1-1.2,0.2-2.4,0.2-3.7s0-2.5,0-3.9c0.3,0.1,0.5,0.2,0.5,0.2c0.4,7.4,5.2,8.8,11.6,9.2
	c8.4,0.5,8.5,0.9,9,9.3c0.5,16.1-2.2,31.4-11.9,44.7c-7.6,10.4-17.3,17.8-31.2,16.6c-9.3-0.8-16.6-5.5-22.6-12.3
	C104.1,162.3,100.3,145.5,101.3,127.3z"/>
</svg>
