<?xml version="1.0" encoding="utf-8"?>
<!-- Generator: Adobe Illustrator 24.3.0, SVG Export Plug-In . SVG Version: 6.00 Build 0)  -->
<svg version="1.1" id="Layer_1" xmlns="http://www.w3.org/2000/svg" xmlns:xlink="http://www.w3.org/1999/xlink" x="0px" y="0px"
	 viewBox="0 0 289.1 70.9" style="enable-background:new 0 0 289.1 70.9;" xml:space="preserve">
<g>
	<g>
		<path d="M4.4,25.1c1.3-0.8,2.4-1.5,3.7-2.4c2.5,2.9,5.5,4.8,9.7,4.5c-4-5.1-4.5-10.4-1.9-16.3c1.3,0.6,2.6,1.1,3.9,1.7
			c-0.1,0.5-0.3,1-0.4,1.4c-0.2,1.7-0.6,3.3-0.4,5c0.4,3.9,2.5,6.6,6.3,7.7c1.6,0.4,3.2,0.8,5.1,1.2c-0.5-2.9-0.7-5.6-2-7.9
			c-1.1-2.1-2.9-3.2-5.1-3.6c-0.6-0.1-1.2-0.2-1.7-0.3c-0.1-0.2-0.2-0.3-0.2-0.4c0.8-4.5,1.3-4.5,5.3-2.9c1.3,0.5,2.4,1.4,3.7,2.2
			C33,8.1,37.4,3.3,45.1,2.1c0,1.6,0,2.9,0,4.5c-6.5,1.4-9.8,6-10.8,12.4c-0.8,5.1,0.5,9.7,4,13.6c5-4.2,5.7-12.4,1.7-20.5
			c1.1-0.8,2.2-1.6,3.4-2.4c1.6,1.6,2.1,3.5,2.8,5.3c1.7-0.9,3.2-1.9,5-2.5c2.7-1,3.3-0.6,3.9,2.3c0.1,0.4,0.1,0.9,0.1,1.4
			c-0.3,0.1-0.6,0.2-0.8,0.2c-4.1,0.4-6.4,2.8-7.2,6.7c-0.3,1.5-0.6,3.1-0.9,4.6c7.9,0.3,13.9-4.9,10.6-14.8
			c1.2-0.5,2.4-1.1,3.6-1.7c3,3.6,2.5,9.4-1.3,16.2c4,0.4,7-1.4,9.5-4.5c1.2,0.8,2.4,1.5,3.7,2.3c-3.7,5.1-8.4,7.2-14.5,6.6
			c-2.2-0.2-4.5-0.5-6.6-0.4c-5.6,0.3-9.6,3.1-12.2,8.1c-2.6,5-3.3,10.1-0.8,15.6c1-1.5,1.3-3,1.5-4.6c0.2-1.3,0.2-2.8,0-4.1
			c-0.4-2.8,0.9-5,2.3-7.6c1.3,2.4,1.9,4.8,2.2,7.1c0.6,4.3-0.4,8.4-2.3,12.2c-1.8,3.5-4.1,6.7-6.7,9.6c-0.6,0.7-1.3,1.1-2.3,1
			c-1.5-0.1-3,0-4.9,0c0.7-0.7,1-1.1,1.4-1.5c1.9-2.1,3.7-4.1,5.5-6.2c0.6-0.7,0.6-1.3,0.2-2.1c-4-7.1-3.7-14.3-0.1-21.4
			c0.5-0.9,0.3-1.5-0.4-2.2c-3.3-3.2-7.3-4.3-11.7-4c-2.3,0.1-4.6,0.5-6.8,0.5C11.2,31.6,7.4,29.2,4.4,25.1z"/>
		<path d="M5.2,29c1.2,0.9,2.4,1.7,3.4,2.6C8.9,31.9,9,32.6,9,33c0.1,2.7,0.8,5.1,2.6,7.1c2.6,2.7,5.5,3.2,9.7,1.6
			c-1.8-2.3-3.1-4.8-3-8c1.4-0.1,2.8-0.3,3.9-0.4c1.1,1.9,1.8,3.9,3.1,5.3c1.4,1.4,3.4,2.1,5.3,3.2c-0.2,1.1-0.5,2.5-0.7,3.9
			c-8.1-0.3-10.5,0.7-14.9,6.4c-0.6-0.1-1.3-0.2-2-0.4c-0.7-0.2-1.4-0.4-2.4-0.7c0.9-1.5,1.8-2.8,2.7-4.3c-3.9-1.7-6.7-4.3-8.2-8.4
			C4.4,35.5,4.3,32,5.2,29z"/>
		<path d="M63.4,46.8c0.9,1.4,1.8,2.7,2.8,4.2c-0.8,0.3-1.4,0.5-2.1,0.7c-2.2,0.6-2.1,0.6-3.5-1c-3.3-3.8-7.4-5.6-12.5-4.9
			c-0.2,0-0.5,0.1-0.7,0.1c-0.1,0-0.2-0.1-0.5-0.1c-0.2-1.3-0.5-2.6-0.8-4.1c4.3-1.1,7.8-3.1,8.1-8.3c1.5,0.1,2.8,0.2,4.3,0.3
			c0.1,3.1-1.1,5.6-2.9,7.9c3,1.9,7,1.4,9.5-1.2c1.9-2,2.8-4.3,2.7-7c0-1,0.3-1.7,1.2-2.2c0.9-0.6,1.7-1.3,2.5-2
			C74.7,34.4,70.8,43,63.4,46.8z"/>
		<path d="M38.4,27.9c-2.8-2.5-3-9.1,0-12.5C41.4,18.5,41.5,25,38.4,27.9z"/>
		<path d="M57.4,52.6c-3,1.2-5.8,1.2-8.6-0.5c-0.8-0.5-1.4-1.3-1.2-2.4c0.2-1.1,1.1-1.5,2.1-1.7C52.3,47.7,56.3,49.9,57.4,52.6z"/>
		<path d="M19.6,52.3c1.6-2.5,3.9-3.9,6.9-4.3c0.3,0,0.6,0,0.9,0c1,0.2,2.1,0.5,2.1,1.7c0,0.7-0.5,1.9-1.1,2.2
			c-1.2,0.7-2.7,1.3-4.1,1.4c-1.5,0.1-3-0.3-4.6-0.5C19.6,52.7,19.6,52.5,19.6,52.3z"/>
		<path d="M32.4,3.1c0.3,2.9-0.6,5.1-2.5,6.9c-1.1,1-2.3,1.2-3.1,0.5s-1-1.9-0.3-3.1C27.6,5,29.6,3.7,32.4,3.1z"/>
		<path d="M40,66.1c1-1.4,1.8-2.6,2.7-3.8c2,2.1,3.8,4.1,6,6.4c-2.2,0-4.2,0.3-6-0.1C41.7,68.3,41,67,40,66.1z"/>
		<path d="M50,3.7c1.1,2.7,1,5.1-0.5,7.3c-0.4,0.6-1.4,1-2.1,1c-1-0.1-1.4-1.1-1.3-2.1C46.3,7.2,47.6,5.2,50,3.7z"/>
		<path d="M11.9,33.5c2.8,0.7,4.5,2.2,5.5,4.5c0.4,0.9,0.5,2-0.4,2.6c-1,0.7-2,0.3-2.7-0.5C12.5,38.4,11.7,36.2,11.9,33.5z"/>
		<path d="M2.8,43.5c2.6-0.3,5.5,1.2,6.6,3.4c0.4,0.8,0.5,1.6-0.1,2.4s-1.6,0.6-2.3,0.2C4.6,48.2,3.2,46.1,2.8,43.5z"/>
		<path d="M65.1,33.5c0.3,2.9-0.5,5.1-2.5,6.8c-0.7,0.6-1.6,1-2.5,0.4c-0.9-0.6-0.9-1.6-0.5-2.5C60.5,35.8,62.2,34.2,65.1,33.5z"/>
		<path d="M74.2,43.3c-0.5,2.7-1.6,4.6-3.8,5.9c-0.9,0.5-2,0.8-2.8-0.1c-0.8-0.8-0.4-1.8,0.1-2.6C69.3,44.4,71.4,43.3,74.2,43.3z"/>
		<path d="M9.5,15.8c3.5,1.5,4.9,4.9,3.7,8.3C9.8,23.5,8.1,19.8,9.5,15.8z"/>
		<path d="M63.9,24.2c-1.3-3.5,0.1-6.8,3.5-8.4C69.2,19,67.6,22.8,63.9,24.2z"/>
		<path d="M25.1,33.9c2.6-0.7,5.7,0.4,6.8,2.4c0.3,0.6,0.4,1.6,0.1,2.2c-0.4,0.9-1.3,0.9-2.2,0.6C27.3,38.3,26,36.4,25.1,33.9z"/>
		<path d="M51.9,33.7c-0.7,2.6-2,4.3-4.2,5.3c-0.9,0.4-2,0.5-2.7-0.5c-0.7-1-0.2-1.9,0.5-2.6C47.2,34,49.3,33.4,51.9,33.7z"/>
		<path d="M27.9,25.1c-4-0.4-6.2-2.8-6-6.4C25,18,27.8,20.9,27.9,25.1z"/>
		<path d="M49.2,25.1c0-3.9,2.4-6.7,5.8-6.6C55.8,21.8,53.3,24.7,49.2,25.1z"/>
	</g>
	<g>
		<g>
			<path d="M98.3,40.3v10.4h-5.9V24.2h16.9v5.4h-11v5.6h9.3v5.2L98.3,40.3L98.3,40.3z"/>
			<path d="M110.5,45.4c0-3.3,2.3-5.4,6.6-5.6l5-0.4v-0.3c0-1.7-1-2.7-3.1-2.7c-2.3,0-3.6,0.9-3.6,2.5H111c0-4,3.3-6.7,8.4-6.7
				c5.2,0,8.2,2.9,8.2,8v10.5h-4.9l-0.3-2.4c-0.6,1.7-2.9,2.9-5.6,2.9C112.9,51.2,110.5,49,110.5,45.4z M122.2,44v-1l-2.8,0.3
				c-2.4,0.2-3.3,0.8-3.3,1.9c0,1.3,0.8,1.9,2.5,1.9C120.7,47.1,122.2,46.1,122.2,44z"/>
			<path d="M131.5,50.7V32.8h5.2l0.3,1.9c0.9-1.3,2.7-2.4,5.2-2.4c2.7,0,4.4,1.3,5.4,3.1c0.9-1.9,3.1-3.1,5.6-3.1
				c4.6,0,6.9,2.7,6.9,6.8v11.7h-5.5V40.6c0-2.2-1.2-3.3-2.9-3.3c-1.6,0-3.1,0.8-3.1,3.9v9.6h-5.5V40.6c0-2.2-1.1-3.3-2.9-3.3
				c-1.6,0-3.2,0.8-3.2,3.9v9.6L131.5,50.7L131.5,50.7z"/>
			<path d="M163.8,26.8c0-1.7,1.4-3.1,3.1-3.1s3.1,1.4,3.1,3.1c0,1.7-1.4,3.1-3.1,3.1C165.2,30,163.8,28.6,163.8,26.8z M164.2,32.8
				h5.5v17.9h-5.5V32.8z"/>
			<path d="M173.9,50.7V23.7h5.5v27.1H173.9z"/>
			<path d="M182.2,54.7h3.1c1.9,0,2.7-0.6,3.3-2.5l0.3-0.8l-7.2-18.6h5.9l3.9,11.5l4.3-11.5h5.7l-9.1,21.8c-1.5,3.6-3.5,5.2-6.7,5.2
				c-1.3,0-2.6-0.2-3.6-0.5V54.7L182.2,54.7z"/>
			<path d="M212,24.2h20.9v5.4h-7.5v21.2h-5.8V29.5H212V24.2z"/>
			<path d="M245.9,38h-1.7c-3.1,0-5.1,1.4-5.1,5v7.8h-5.5V32.8h5.2l0.3,2.7c0.8-1.7,2.3-2.9,4.7-2.9c0.6,0,1.4,0.1,2.1,0.3V38z"/>
			<path d="M247.2,41.7c0-5.6,3.8-9.5,9.2-9.5c5.6,0,9.1,3.7,9.1,9.6v1.4l-13,0.1c0.3,2.4,1.7,3.5,4.1,3.5c2.1,0,3.6-0.8,4-2h5.1
				c-0.6,4-4.2,6.6-9.1,6.6C251.1,51.2,247.2,47.3,247.2,41.7z M252.6,39.9h7.5c0-1.9-1.4-3.1-3.6-3.1
				C254.2,36.7,253,37.7,252.6,39.9z"/>
			<path d="M267.8,41.7c0-5.6,3.8-9.5,9.2-9.5c5.6,0,9.1,3.7,9.1,9.6v1.4l-13,0.1c0.3,2.4,1.7,3.5,4.1,3.5c2.1,0,3.6-0.8,4-2h5.1
				c-0.6,4-4.2,6.6-9.1,6.6C271.7,51.2,267.8,47.3,267.8,41.7z M273.3,39.9h7.5c0-1.9-1.4-3.1-3.6-3.1S273.7,37.7,273.3,39.9z"/>
		</g>
		<g>
			<path d="M200.9,63.9v-8.2h1v3.7c0.3-0.7,1.1-1.1,2-1.1c1.6,0,2.5,1.3,2.5,2.9c0,1.7-1,2.9-2.6,2.9c-0.8,0-1.6-0.3-2-1.1l-0.1,1
				H200.9z M203.7,63.1c1,0,1.7-0.8,1.7-2c0-1.1-0.6-2-1.7-2c-1,0-1.7,0.8-1.7,2C201.9,62.3,202.6,63.1,203.7,63.1z"/>
			<path d="M206.9,65.5h0.7c0.5,0,0.9-0.1,1.2-0.8l0.2-0.6l-2.2-5.8h1.1l1.6,4.4l1.6-4.4h1.1l-2.6,6.7c-0.3,1-0.9,1.3-1.7,1.3
				c-0.3,0-0.6-0.1-0.9-0.1L206.9,65.5L206.9,65.5z"/>
			<path d="M215.7,63.9v-1l4.3-6.1h-4.3v-1h5.6v1l-4.4,6.1h4.4v1H215.7z"/>
			<path d="M227.4,58.4V64h-1l-0.1-0.8c-0.3,0.6-1,1-1.9,1c-1.3,0-2-0.8-2-2.2v-3.4h1v3.1c0,1.2,0.5,1.6,1.3,1.6
				c1,0,1.5-0.6,1.5-1.8v-2.9L227.4,58.4L227.4,58.4z"/>
			<path d="M229,63.9v-8.2h1v3.7c0.3-0.7,1.1-1.1,2-1.1c1.6,0,2.5,1.3,2.5,2.9c0,1.7-1,2.9-2.6,2.9c-0.8,0-1.6-0.3-2-1.1l-0.1,1H229
				z M231.8,63.1c1,0,1.7-0.8,1.7-2c0-1.1-0.6-2-1.7-2c-1,0-1.7,0.8-1.7,2C230,62.3,230.6,63.1,231.8,63.1z"/>
			<path d="M235.4,62.4c0-1,0.8-1.6,2-1.7l1.7-0.1v-0.1c0-0.9-0.6-1.3-1.3-1.3c-0.9,0-1.4,0.4-1.4,1h-0.9c0-1.1,1-1.9,2.4-1.9
				c1.3,0,2.3,0.7,2.3,2.2V64h-0.9l-0.1-0.9c-0.3,0.6-1,1-2,1C236.1,64,235.4,63.4,235.4,62.4z M239.2,61.6v-0.3l-1.4,0.1
				c-0.9,0.1-1.3,0.4-1.3,1c0,0.6,0.4,0.9,1.1,0.9C238.6,63.3,239.2,62.6,239.2,61.6z"/>
			<path d="M241.5,56.4c0-0.4,0.3-0.7,0.7-0.7s0.7,0.3,0.7,0.7c0,0.3-0.3,0.7-0.7,0.7S241.5,56.8,241.5,56.4z M241.7,58.4h1V64h-1
				V58.4z"/>
			<path d="M247.4,59.4h-0.5c-1,0-1.6,0.6-1.6,1.7V64h-1v-5.4h1l0.1,0.8c0.2-0.6,0.8-1,1.5-1c0.2,0,0.3,0,0.6,0.1V59.4z"/>
			<path d="M250.8,63.9l2.9-8.1h1.3l3,8.1h-1.2l-0.7-2h-3.4l-0.7,2H250.8z M253,61h2.7l-1.3-3.4c-0.1-0.1-0.1-0.3-0.1-0.5
				c0,0.1-0.1,0.3-0.1,0.5L253,61z"/>
			<path d="M258.8,63.9v-8.2h1v3.6c0.3-0.6,1-1,1.9-1c1.4,0,2.1,0.9,2.1,2.3V64h-1v-3.1c0-1.1-0.6-1.5-1.3-1.5c-1,0-1.6,0.8-1.6,1.7
				v3L258.8,63.9L258.8,63.9z"/>
			<path d="M265.3,63.9v-5.5h1l0.1,0.7c0.3-0.5,0.8-0.9,1.6-0.9c0.8,0,1.5,0.4,1.7,1.1c0.3-0.7,0.9-1.1,1.7-1.1c1.3,0,2,0.8,2,2v3.6
				h-1v-3.3c0-0.8-0.5-1.3-1.3-1.3s-1.3,0.6-1.3,1.5v3.3h-1v-3.3c0-0.8-0.5-1.3-1.2-1.3c-0.8,0-1.3,0.6-1.3,1.4v3.3L265.3,63.9
				L265.3,63.9z"/>
			<path d="M274.6,61.2c0-1.7,1.1-2.9,2.7-2.9c1.5,0,2.6,1,2.6,2.7v0.4h-4.3c0.1,1.2,0.7,1.8,1.7,1.8c0.8,0,1.3-0.3,1.5-1h1
				c-0.3,1.2-1.2,1.8-2.5,1.8C275.7,64,274.6,62.9,274.6,61.2z M275.6,60.7h3.1c0-0.9-0.6-1.5-1.5-1.5
				C276.4,59.1,275.8,59.7,275.6,60.7z"/>
			<path d="M280.7,61.2c0-1.7,1-2.9,2.6-2.9c0.8,0,1.5,0.3,1.9,1v-3.6h1v8.2h-1l-0.1-1c-0.3,0.8-1.1,1.1-2,1.1
				C281.6,64,280.7,62.8,280.7,61.2z M285.2,61.2c0-1.1-0.6-2-1.7-2c-1,0-1.7,0.8-1.7,2c0,1.1,0.6,2,1.7,2
				C284.6,63.1,285.2,62.3,285.2,61.2z"/>
		</g>
	</g>
</g>
</svg>
