<?xml version="1.0" encoding="utf-8"?>
<!-- Generator: Adobe Illustrator 24.3.0, SVG Export Plug-In . SVG Version: 6.00 Build 0)  -->
<svg version="1.1" id="Layer_1" xmlns="http://www.w3.org/2000/svg" xmlns:xlink="http://www.w3.org/1999/xlink" x="0px" y="0px"
	 viewBox="0 0 283.5 283.5" style="enable-background:new 0 0 283.5 283.5;" xml:space="preserve">
<style type="text/css">
	.st0{fill:#A5A5A5;}
</style>
<path class="st0" d="M266.3,257.8c-0.7-14.7-8.3-24.2-18.8-31.1c-14.2-9.4-33.7-13.8-48.2-19.7c-3.9-1.5-7.3-4.2-10.7-6.7
	c-3.1-2.2-5.9-4.9-8.7-7.3c-0.6,15.9-6.8,30.6-14.1,46c-6.7-7.4-12.8-14.3-19.4-21.5c1.8-1.3,3-2,4.1-2.9c6.2-5.1,12.5-10,18.4-15.4
	c5.3-4.8,7.6-11,6.9-18.4c-0.3-3,1-6.3,2.1-9.3c2-5.7,4.6-11.2,6.6-16.9c0.7-2.1,1.5-3.4,3.8-4.1c1.6-0.5,3.3-2.3,3.9-3.9
	c2.3-6.1,4.7-12.3,6.1-18.6c1.4-6.1,2-12.6-6-15.4c1.5-6.7,3.2-13.2,4.5-19.8c0.8-4.1,1.8-8.4,1.4-12.5c-0.7-8.4-5.7-14.5-12-19.7
	c-1.3-1.1-2.7-2.6-3.1-4.2c-1.3-5.2-4.8-7.8-9.7-8.8c-2.7-0.5-5.7-0.1-8.7-0.1c-0.9-5.5-5.4-7.3-10.1-8.4
	c-18.7-4.6-35.6-0.8-50.5,11.6c-0.9,0.8-1.6,1.8-2.9,3.3c4.3-0.2,7.6-0.4,11-0.5c-16.3,5.8-26.5,17-24.1,27.2c1.7-1,3.3-2,4.9-3
	c-5.2,5.7-5.6,12.1-4,19.1c1.2,5.3,2,10.6,3,15.8c-5.6,2.6-6.9,4.3-6.9,10c0,8.8,2.6,17,6.9,24.6c0.9,1.6,3.1,2.5,4.7,3.8
	c1,0.8,2.2,1.7,2.6,2.9c2.1,5,3.4,10.5,6.1,15.2s3.8,9.3,3.3,14.5c-0.6,5.3,1.1,10,5,13.5c6.9,6.3,14.1,12.2,21.2,18.2
	c0.9,0.8,1.9,1.4,3.4,2.4c-6.7,7.1-13.1,13.9-20,21.2c-7.2-15.4-13.2-30.3-14.1-46.9c-2.5,3-6.2,6.1-9.3,8.3
	c-3.4,2.5-6.8,5.2-10.7,6.7c-14.5,5.8-34,10.3-48.2,19.7c-10.5,6.9-18.1,16.5-18.8,31.1c-0.1,2.9,0.8,25.6,0.8,25.6h101
	c-3.3-15.6-7-37.7-10.3-53.5c0.1-0.3,0.1-0.6,0.2-0.8c2.4,3.3,4,6.9,5.7,10.3c2.1,4.2,3.7,4.5,7.1,1.3c2.7-2.6,5.3-5.2,8-8
	c3.3,5.4,6,10.4,4,16.8c-1.3,4.4-5.8,33.8-5.8,33.9c3.2,0.3,27.4,0,27.4,0c-0.1-0.8-3.3-26.6-5.3-36.1c-1.2-5.8,1.5-10,4.3-15.2
	c2.7,2.9,5,5.4,7.3,7.8c4.1,4.2,5.9,3.9,8.5-1.5c1.5-3.2,2.9-6.4,4.4-9.6c0.2,0.1,0.3,0.1,0.5,0.2c-3.4,15.8-7.1,38.5-10.5,54.4
	h101.1C265.5,283.4,266.4,260.7,266.3,257.8z M102.6,150.9c-0.6-2.7-0.8-5.6-5-4.1c-0.6,0.2-2.2-1-2.6-2c-3.6-6.9-5.9-14.1-6.2-21.9
	c0-0.8-0.1-1.8,0.3-2.5c0.7-1.3,1.8-2.4,2.7-3.6c1,1.1,2.3,2,2.8,3.2c1.1,2.5,1.7,5.1,2.6,7.7c0.5,0,1,0,1.5,0.1
	c0.5-1.7,1.4-3.3,1.6-5c0.7-5.3,1-10.6,1.6-15.9c0.8-6.1,5.7-10.1,11.8-10.6c15.8-1.3,30.9-4.8,44.6-13.2c0.6-0.3,1.2-0.6,2.2-0.5
	c-1.5,2.3-3,4.5-4.9,7.5c4.8,0.3,8.1-1.7,11.3-3.8c3.2-2.1,6.2-4.5,9.7-7.1c3,16.4,6,32.5,8.9,48.7h1.7c0.8-2.4,1.5-4.9,2.6-7.3
	c0.6-1.4,1.9-2.5,2.9-3.7c0.9,1.4,2.7,2.8,2.7,4.2c0.1,8.8-2.5,17-6.9,24.5c-0.6,1.1-3.3,0.9-5.7,1.6c-0.2,0.6-0.6,2-0.9,3.3
	c-2.3,10.5-6.5,20.1-13.6,28.3c-15,17.2-36.4,17.4-51.5,0.2C109.5,170.9,105.1,161.3,102.6,150.9z M140.5,214.1
	c-7.8-6.1-15.8-12-23.2-18.7c-5.3-4.8-5.3-6.6-4.5-14.5c19.3,19.5,38.8,19.9,58.6,0.2c0.7,4.4,0.7,8.1-1.9,11.5
	c-7,9.2-16.2,15.7-25.8,21.7C143,214.8,141.2,214.7,140.5,214.1z"/>
</svg>
