<?xml version="1.0" encoding="utf-8"?>
<!-- Generator: Adobe Illustrator 24.3.0, SVG Export Plug-In . SVG Version: 6.00 Build 0)  -->
<svg version="1.1" id="Layer_1" xmlns="http://www.w3.org/2000/svg" xmlns:xlink="http://www.w3.org/1999/xlink" x="0px" y="0px"
	 viewBox="0 0 283.5 283.5" style="enable-background:new 0 0 283.5 283.5;" xml:space="preserve">
<style type="text/css">
	.st0{fill:#00D30A;}
	.st1{fill:#FFFFFF;}
</style>
<g>
	<path class="st0" d="M32.3,187.1c0,0.2,0.1,0.3,0,0.4c0,0.2-0.1,0.4-0.2,0.6c-3,8.9-3.7,18-1.7,27.2c2.3,10.5,6.8,19.9,15.2,26.8
		c14.5,11.9,31.1,14.9,49.1,9.5c1.3-0.4,1.9-0.3,2.5,1c3.5,7.1,8.5,13.1,14.9,17.8c11,8.1,23.3,12.1,37,9.7
		c16.9-3,29.3-12.4,37.3-27.6c0.6-1.1,1.1-1.3,2.2-0.9c9.2,3.3,18.6,3.9,28,1.6c28.8-7,44.8-36.5,35.1-64.5c-0.5-1.3-0.3-1.9,1-2.5
		c5.3-2.6,10.1-6,14.1-10.5c11.7-13,16.9-27.9,12.5-45.3c-3.8-15-12.8-26-26.5-33.2c-0.9-0.5-1.8-0.7-1.2-2.2
		c2.9-8.3,3.5-16.9,1.9-25.6c-2-11-6.7-20.7-15.4-28c-14.6-12.2-31.2-15.1-49.3-9.6c-1.2,0.4-1.8,0.3-2.3-0.9
		c-2.8-5.7-6.5-10.8-11.3-14.9c-11.3-9.8-24.2-15-39.3-12.8c-17.4,2.6-30.2,12-38.3,27.6c-0.6,1.2-1.1,1.5-2.4,1
		c-9.5-3.1-19.1-3.5-28.7-1.1C37.5,38,26.5,64.5,30,86.4c0.5,3.3,1.5,6.6,2.2,10c-18.2,9.5-29.4,24.4-29.4,45.2
		C2.8,162.4,13.9,177.5,32.3,187.1z"/>
	<path class="st1" d="M90.7,129c9.7,9.8,19.9,19.9,30.1,30.2c21.8-23.8,43.5-47.3,65.3-71.1c6.8,6.3,13.4,12.4,20.2,18.7
		c-28.2,30.8-56.2,61.4-84.2,91.9c-17-17-33.9-34-50.7-50.8C77.6,141.8,84.1,135.5,90.7,129z"/>
</g>
</svg>
